<svg xmlns="http://www.w3.org/2000/svg" width="651" height="393.26" viewBox="0 0 651 393.26"><path d="M1142,563,944.59,756.67a14.11,14.11,0,0,1-19.6,0L727.6,563c-46.68-45.79-46.48-120.55,1.67-164.84a117.82,117.82,0,0,1,161.61,2.59l43.91,43.08,43.91-43.08a117.81,117.81,0,0,1,161.6-2.59C1188.46,442.47,1188.66,517.22,1142,563Z" transform="translate(-613 -367.37)" style="fill:#f33"/><polyline points="646 211.63 536.02 211.42 386.77 211.42 350.43 298.19 303.52 116.76 267.36 201.49 120.83 201.49 5 201.63" style="fill:none;stroke:#06f;stroke-linecap:round;stroke-linejoin:round;stroke-width:10px"/></svg>